<mxfile host="app.diagrams.net" modified="2024-04-27T07:00:23.260Z" agent="Mozilla/5.0 (Windows NT 10.0; Win64; x64) AppleWebKit/537.36 (KHTML, like Gecko) Chrome/124.0.0.0 Safari/537.36" etag="U5vSHhNhUlTowiNKXYrH" version="24.3.1" type="github">
  <diagram name="Page-1" id="i7FhxXO4FDcGWaVVWZ8e">
    <mxGraphModel dx="1434" dy="780" grid="1" gridSize="10" guides="1" tooltips="1" connect="1" arrows="1" fold="1" page="1" pageScale="1" pageWidth="850" pageHeight="1100" math="0" shadow="0">
      <root>
        <mxCell id="0" />
        <mxCell id="1" parent="0" />
        <mxCell id="uoufLxzkl66dpovDoGYp-1" value="" style="rounded=0;whiteSpace=wrap;html=1;" vertex="1" parent="1">
          <mxGeometry x="305" y="530" width="120" height="60" as="geometry" />
        </mxCell>
        <mxCell id="uoufLxzkl66dpovDoGYp-2" value="" style="shape=image;verticalLabelPosition=bottom;labelBackgroundColor=default;verticalAlign=top;aspect=fixed;imageAspect=0;image=https://github.com/sheikhnasir/AZ-305/raw/main/Instructions/CaseStudy/media/fabrikam.png;" vertex="1" parent="1">
          <mxGeometry x="70" y="30" width="807" height="238" as="geometry" />
        </mxCell>
      </root>
    </mxGraphModel>
  </diagram>
</mxfile>
